<svg fill="none" height="495" viewBox="0 0 945 495" width="945" xmlns="http://www.w3.org/2000/svg" xmlns:xlink="http://www.w3.org/1999/xlink"><linearGradient id="paint0_linear_1888_13792" gradientUnits="userSpaceOnUse" x1="434.254" x2="504.605" y1="515.96" y2="24.8848"><stop offset=".00127618" stop-color="#bdd4ff"/><stop offset=".4841" stop-color="#dee9ff"/><stop offset=".7796" stop-color="#edf3ff"/></linearGradient><linearGradient id="lg1"><stop offset="0" stop-color="#4687ff"/><stop offset="1" stop-color="#77a7ff"/></linearGradient><linearGradient id="paint1_linear_1888_13792" gradientUnits="userSpaceOnUse" x1="271.306" x2="268.424" xlink:href="#lg1" y1="479.851" y2="-39.4914"/><linearGradient id="paint2_linear_1888_13792" gradientUnits="userSpaceOnUse" x1="337.156" x2="260.176" y1="433.336" y2="461.133"><stop offset=".1522" stop-color="#bdd4ff"/><stop offset="1" stop-color="#e7efff"/></linearGradient><linearGradient id="lg2"><stop offset="0" stop-color="#bdd4ff"/><stop offset="1" stop-color="#e7efff"/></linearGradient><linearGradient id="paint3_linear_1888_13792" gradientUnits="userSpaceOnUse" x1="265.59" x2="166.99" xlink:href="#lg2" y1="429.979" y2="465.584"/><linearGradient id="paint4_linear_1888_13792" gradientUnits="userSpaceOnUse" x1="752.903" x2="740.482" y1="307.261" y2="264.372"><stop offset="0" stop-color="#533c3f"/><stop offset="1" stop-color="#855d53"/></linearGradient><linearGradient id="lg3"><stop offset="0" stop-color="#0e1b33"/><stop offset="1" stop-color="#233b67"/></linearGradient><linearGradient id="paint5_linear_1888_13792" gradientUnits="userSpaceOnUse" x1="745.592" x2="802.684" xlink:href="#lg3" y1="478.522" y2="450.336"/><linearGradient id="paint6_linear_1888_13792" gradientUnits="userSpaceOnUse" x1="703.63" x2="773.359" xlink:href="#lg3" y1="466.504" y2="521.683"/><linearGradient id="paint7_linear_1888_13792" gradientUnits="userSpaceOnUse" x1="748.418" x2="841" y1="323.462" y2="219.626"><stop offset=".0518991" stop-color="#4687ff"/><stop offset=".7671" stop-color="#77a7ff"/></linearGradient><linearGradient id="paint8_linear_1888_13792" gradientUnits="userSpaceOnUse" x1="701.869" x2="714.74" xlink:href="#lg3" y1="205.513" y2="34.8642"/><linearGradient id="paint9_linear_1888_13792" gradientUnits="userSpaceOnUse" x1="707.525" x2="668.14" y1="161.771" y2="245.065"><stop offset="0" stop-color="#bf8e80"/><stop offset=".2017" stop-color="#daae9e"/><stop offset=".3993" stop-color="#eec6b5"/><stop offset=".5202" stop-color="#f6cfbe"/></linearGradient><linearGradient id="paint10_linear_1888_13792" gradientUnits="userSpaceOnUse" x1="688.471" x2="723.136" y1="73.3912" y2="186.645"><stop offset="0" stop-color="#bf8e80"/><stop offset="1" stop-color="#f6cfbe"/></linearGradient><linearGradient id="paint11_linear_1888_13792" gradientUnits="userSpaceOnUse" x1="657.936" x2="780.579" y1="434.886" y2="109.538"><stop offset=".1031" stop-color="#4687ff"/><stop offset=".2224" stop-color="#4f8dff"/><stop offset=".6438" stop-color="#6ca0ff"/><stop offset=".8856" stop-color="#77a7ff"/></linearGradient><linearGradient id="paint12_linear_1888_13792" gradientUnits="userSpaceOnUse" x1="817.953" x2="824.605" xlink:href="#lg1" y1="354.186" y2="268.517"/><linearGradient id="paint13_linear_1888_13792" gradientUnits="userSpaceOnUse" x1="649.225" x2="660.335" y1="492.799" y2="461.656"><stop offset="0" stop-color="#bf8e80"/><stop offset=".3876" stop-color="#daae9e"/><stop offset=".7676" stop-color="#eec6b5"/><stop offset="1" stop-color="#f6cfbe"/></linearGradient><linearGradient id="paint14_linear_1888_13792" gradientUnits="userSpaceOnUse" x1="730.874" x2="546.789" y1="316.672" y2="378.271"><stop offset="0" stop-color="#77a7ff"/><stop offset=".2971" stop-color="#649aff"/><stop offset=".7242" stop-color="#4e8cff"/><stop offset="1" stop-color="#4687ff"/></linearGradient><linearGradient id="lg4"><stop offset="0" stop-color="#4687ff" stop-opacity=".4"/><stop offset=".1629" stop-color="#5691ff" stop-opacity=".3348"/><stop offset=".4132" stop-color="#679dff" stop-opacity=".2347"/><stop offset=".6821" stop-color="#72a4ff" stop-opacity=".1272"/><stop offset="1" stop-color="#75a6ff" stop-opacity="0"/></linearGradient><radialGradient id="paint15_radial_1888_13792" cx="0" cy="0" gradientTransform="matrix(-756.805 0 0 -756.805 74.3124 648.654)" gradientUnits="userSpaceOnUse" r="1" xlink:href="#lg4"/><linearGradient id="paint16_linear_1888_13792" gradientUnits="userSpaceOnUse" x1="193.49" x2="168.871" xlink:href="#lg2" y1="344.28" y2="314.894"/><linearGradient id="paint17_linear_1888_13792" gradientUnits="userSpaceOnUse" x1="169.559" x2="160.747" y1="279.477" y2="335.285"><stop offset="0" stop-color="#bdd4ff"/><stop offset="1" stop-color="#e7efff" stop-opacity="0"/></linearGradient><linearGradient id="paint18_linear_1888_13792" gradientUnits="userSpaceOnUse" x1="341.331" x2="382.326" y1="340.825" y2="332.191"><stop offset="0" stop-color="#bdd4ff"/><stop offset=".7159" stop-color="#e7efff"/></linearGradient><linearGradient id="lg5"><stop offset="0" stop-color="#77a7ff"/><stop offset="1" stop-color="#bdd4ff"/></linearGradient><linearGradient id="paint19_linear_1888_13792" gradientUnits="userSpaceOnUse" x1="375.049" x2="385.531" xlink:href="#lg5" y1="428.256" y2="416.565"/><linearGradient id="paint20_linear_1888_13792" gradientUnits="userSpaceOnUse" x1="201.98" x2="330.468" y1="447.835" y2="276.515"><stop offset=".00127618" stop-color="#bdd4ff"/><stop offset=".8435" stop-color="#edf3ff"/></linearGradient><linearGradient id="paint21_linear_1888_13792" gradientUnits="userSpaceOnUse" x1="390.26" x2="374.284" xlink:href="#lg2" y1="465.584" y2="461.044"/><linearGradient id="paint22_linear_1888_13792" gradientUnits="userSpaceOnUse" x1="327.239" x2="366.671" xlink:href="#lg5" y1="460.3" y2="456.8"/><linearGradient id="paint23_linear_1888_13792" gradientUnits="userSpaceOnUse" x1="133.892" x2="122.654" xlink:href="#lg5" y1="390.16" y2="335.886"/><linearGradient id="paint24_linear_1888_13792" gradientUnits="userSpaceOnUse" x1="69.7509" x2="79.7729" xlink:href="#lg2" y1="333.182" y2="320.499"/><linearGradient id="paint25_linear_1888_13792" gradientUnits="userSpaceOnUse" x1="113.34" x2="173.185" xlink:href="#lg2" y1="327.484" y2="362.233"/><linearGradient id="paint26_linear_1888_13792" gradientUnits="userSpaceOnUse" x1="338.831" x2="355.596" y1="434.898" y2="437.391"><stop offset="0" stop-color="#bdd4ff"/><stop offset=".2868" stop-color="#cadcff"/><stop offset="1" stop-color="#e7efff"/></linearGradient><linearGradient id="paint27_linear_1888_13792" gradientUnits="userSpaceOnUse" x1="464.322" x2="519.881" xlink:href="#lg2" y1="126.093" y2="118.846"/><radialGradient id="paint28_radial_1888_13792" cx="0" cy="0" gradientTransform="matrix(-.34520882 -155.98561801 28.15533105 -.06231003 330.281 159.694)" gradientUnits="userSpaceOnUse" r="1" xlink:href="#lg4"/><linearGradient id="lg6"><stop offset="0" stop-color="#ffffff"/><stop offset=".0740379" stop-color="#ffffff" stop-opacity=".926"/><stop offset="1" stop-color="#ffffff" stop-opacity="0"/></linearGradient><radialGradient id="paint29_radial_1888_13792" cx="0" cy="0" gradientTransform="matrix(-189.078 0 0 -189.078 295.006 45.2116)" gradientUnits="userSpaceOnUse" r="1" xlink:href="#lg6"/><linearGradient id="paint30_linear_1888_13792" gradientUnits="userSpaceOnUse" x1="241.618" x2="246.793" xlink:href="#lg2" y1="241.733" y2="203.773"/><radialGradient id="paint31_radial_1888_13792" cx="0" cy="0" gradientTransform="matrix(-144.458 0 0 -144.458 204.948 109.664)" gradientUnits="userSpaceOnUse" r="1" xlink:href="#lg6"/><radialGradient id="paint32_radial_1888_13792" cx="0" cy="0" gradientTransform="matrix(-109.48042415 -7.24673222 1.03421146 -15.62440913 258.541 237.271)" gradientUnits="userSpaceOnUse" r="1" xlink:href="#lg4"/><linearGradient id="paint33_linear_1888_13792" gradientUnits="userSpaceOnUse" x1="280.986" x2="270.094" xlink:href="#lg5" y1="201.68" y2="188.023"/><linearGradient id="paint34_linear_1888_13792" gradientUnits="userSpaceOnUse" x1="185.911" x2="214.238" y1="144.971" y2="150.587"><stop offset="0" stop-color="#77a7ff"/><stop offset="1" stop-color="#bdd4ff" stop-opacity="0"/></linearGradient><linearGradient id="paint35_linear_1888_13792" gradientUnits="userSpaceOnUse" x1="251.852" x2="244.311" y1="174.91" y2="154.51"><stop offset="0" stop-color="#4687ff"/><stop offset=".9992" stop-color="#77a7ff"/></linearGradient><radialGradient id="paint36_radial_1888_13792" cx="0" cy="0" gradientTransform="matrix(72.9020544 -14.1390355 14.1390355 72.9020544 185.147 197.944)" gradientUnits="userSpaceOnUse" r="1" xlink:href="#lg6"/><linearGradient id="paint37_linear_1888_13792" gradientUnits="userSpaceOnUse" x1="272.632" x2="242.49" xlink:href="#lg3" y1="181.126" y2="128.799"/><linearGradient id="paint38_linear_1888_13792" gradientUnits="userSpaceOnUse" x1="238.77" x2="213.187" y1="133.828" y2="107.251"><stop offset="0" stop-color="#233b67"/><stop offset=".9981" stop-color="#565378"/></linearGradient><linearGradient id="paint39_linear_1888_13792" gradientUnits="userSpaceOnUse" x1="267.213" x2="238.401" xlink:href="#lg4" y1="145.78" y2="152.443"/><radialGradient id="paint40_radial_1888_13792" cx="0" cy="0" gradientTransform="matrix(34.44603786 -6.68065881 6.68065881 34.44603786 229.434 118.769)" gradientUnits="userSpaceOnUse" r="1" xlink:href="#lg6"/><radialGradient id="paint41_radial_1888_13792" cx="0" cy="0" gradientTransform="matrix(63.97666865 -12.40799586 12.40799586 63.97666865 254.619 174.782)" gradientUnits="userSpaceOnUse" r="1" xlink:href="#lg4"/><linearGradient id="paint42_linear_1888_13792" gradientUnits="userSpaceOnUse" x1="310.19" x2="306.049" y1="95.2184" y2="62.349"><stop offset="0" stop-color="#f64f64"/><stop offset="1" stop-color="#ffe4e8"/></linearGradient><linearGradient id="paint43_linear_1888_13792" gradientUnits="userSpaceOnUse" x1="299.815" x2="273.668" xlink:href="#lg5" y1="97.4372" y2="83.1759"/><linearGradient id="paint44_linear_1888_13792" gradientUnits="userSpaceOnUse" x1="316.359" x2="307.818" xlink:href="#lg5" y1="116.098" y2="85.0405"/><radialGradient id="paint45_radial_1888_13792" cx="0" cy="0" gradientTransform="matrix(-25.64369311 -7.13910645 7.13910645 -25.64369311 238.996 135.333)" gradientUnits="userSpaceOnUse" r="1" xlink:href="#lg6"/><linearGradient id="lg7"><stop offset=".0530442" stop-color="#305eb2"/><stop offset=".7144" stop-color="#233b67"/></linearGradient><linearGradient id="paint46_linear_1888_13792" gradientUnits="userSpaceOnUse" x1="18.8892" x2="140.489" xlink:href="#lg7" y1="263.503" y2="349.176"/><linearGradient id="paint47_linear_1888_13792" gradientUnits="userSpaceOnUse" x1="109.436" x2="51.4507" y1="329.558" y2="264.606"><stop offset=".00180415" stop-color="#305eb2"/><stop offset="1" stop-color="#233b67"/></linearGradient><linearGradient id="paint48_linear_1888_13792" gradientUnits="userSpaceOnUse" x1="113.253" x2="54.8553" xlink:href="#lg5" y1="316.455" y2="278.108"/><linearGradient id="paint49_linear_1888_13792" gradientUnits="userSpaceOnUse" x1="38.246" x2="47.5694" y1="281.402" y2="292.474"><stop offset=".069339" stop-color="#305eb2"/><stop offset=".7689" stop-color="#233b67"/></linearGradient><linearGradient id="paint50_linear_1888_13792" gradientUnits="userSpaceOnUse" x1="44.7434" x2="54.1354" xlink:href="#lg7" y1="288.145" y2="299.299"/><linearGradient id="paint51_linear_1888_13792" gradientUnits="userSpaceOnUse" x1="95.8642" x2="101.574" xlink:href="#lg2" y1="323.092" y2="308.56"/><linearGradient id="paint52_linear_1888_13792" gradientUnits="userSpaceOnUse" x1="837.183" x2="865.154" xlink:href="#lg1" y1="267.172" y2="268.204"/><linearGradient id="paint53_linear_1888_13792" gradientUnits="userSpaceOnUse" x1="839.175" x2="854.469" y1="243.153" y2="243.718"><stop offset="0" stop-color="#bf8e80"/><stop offset=".546" stop-color="#dcb0a0"/><stop offset="1" stop-color="#f6cfbe"/></linearGradient><linearGradient id="paint54_linear_1888_13792" gradientUnits="userSpaceOnUse" x1="838.397" x2="837.24" y1="243.412" y2="201.401"><stop offset="0" stop-color="#5388f6"/><stop offset=".9992" stop-color="#80a7f7"/></linearGradient><linearGradient id="paint55_linear_1888_13792" gradientUnits="userSpaceOnUse" x1="839.598" x2="838.441" y1="243.378" y2="201.368"><stop offset="0" stop-color="#4a72d2"/><stop offset=".9992" stop-color="#80a7f7"/></linearGradient><linearGradient id="paint56_linear_1888_13792" gradientUnits="userSpaceOnUse" x1="837.751" x2="869.326" y1="182.186" y2="324.577"><stop offset=".1752" stop-color="#f6cfbe"/><stop offset=".2971" stop-color="#eac1b0"/><stop offset=".5283" stop-color="#ca9b8c"/><stop offset=".6002" stop-color="#bf8e80"/></linearGradient><linearGradient id="paint57_linear_1888_13792" gradientUnits="userSpaceOnUse" x1="834.373" x2="835.512" y1="318.847" y2="229.878"><stop offset="0" stop-color="#bf8e80"/><stop offset=".4098" stop-color="#d7aa9b"/><stop offset="1" stop-color="#f6cfbe"/></linearGradient><clipPath id="clip0_1888_13792"><path d="M0 0H945V495H0Z"/></clipPath><g clip-path="url(#clip0_1888_13792)"><path d="M955-12H-9V503H955V-12Z" fill="url(#paint0_linear_1888_13792)"/><path d="M460 504-6 506V-17H546L460 504Z" fill="url(#paint1_linear_1888_13792)"/><path d="M355.901 503H278.601C277.601 486 276.801 467.1 276.801 450.3 276.701 424.4 287.402 399.2 297.202 383.2 303.802 372.3 310.201 365.9 311.901 366.2 315.501 367 324.601 384.3 333.601 409L333.701 409.2 333.801 409.4C333.901 409.6 334.001 409.7 334.001 410 333.901 410.1 334.001 410.3 334.101 410.4 334.201 410.6 334.301 410.8 334.401 410.9 334.601 411.2 334.701 411.6 334.801 411.9 334.901 412 334.901 412.1 335.001 412.2 343.801 436.8 352.301 468 355.601 497.9 355.601 499.6 355.801 501.3 355.901 503Z" fill="url(#paint2_linear_1888_13792)"/><path d="M272.001 449.8C271.901 466.8 271.101 485.9 270.101 503H192.701C192.901 501.1 193.001 499.3 193.301 497.4 196.601 467.5 205.001 436.4 213.901 411.7 214.001 411.5 213.901 411.4 214.101 411.4 214.101 411.1 214.301 410.8 214.501 410.4 214.601 410.2 214.701 410.1 214.801 409.9 214.901 409.7 215.001 409.6 214.901 409.5 214.901 409.2 215.001 409.1 215.101 408.9L215.201 408.7 215.301 408.5C224.301 383.8 233.501 366.5 237.001 365.7 238.701 365.3 245.101 371.8 251.701 382.7 261.401 398.6 272.201 423.9 272.001 449.8Z" fill="url(#paint3_linear_1888_13792)"/><path d="M733.701 301.7 744.501 271.4 761.601 276.8 757.401 307.4 733.701 301.7Z" fill="url(#paint4_linear_1888_13792)"/><path d="M847.701 505H727.401C720.601 500.4 716.401 497.5 716.401 497.5 706.201 477.3 702.201 460.7 703.401 447.1 704.701 432.7 711.901 421.8 723.601 413.4 729.101 409.4 735.701 406.1 743.201 403.3 743.201 403.3 755.001 414 771.901 429.8 793.501 450.3 823.701 479.3 847.701 505Z" fill="url(#paint5_linear_1888_13792)"/><path d="M738.401 505H652.201C651.201 500.2 650.301 495.7 649.501 491.2 648.301 484.6 647.301 478.4 646.501 472.6 646.501 472.3 646.401 472 646.401 471.7 646.201 470.5 646.101 469.4 646.001 468.3 644.501 456.5 643.801 446.2 643.501 437.5 643.201 428 643.501 420.2 644.001 414 644.001 413.7 644.001 413.4 644.101 413.2 645.201 400.3 647.401 394.5 647.401 394.5L721.101 401.2C722.001 405.4 722.801 409.5 723.601 413.6 725.601 423.9 727.501 434 729.101 443.9 732.901 465.8 736.001 486.4 738.401 505Z" fill="url(#paint6_linear_1888_13792)"/><path d="M738.701 209.5C738.701 209.5 763.201 219 784.201 260.8 805.201 302.5 836.201 348.1 826.801 360.1 817.601 372.2 800.001 387 766.001 319 756.701 293.1 738.701 209.5 738.701 209.5Z" fill="url(#paint7_linear_1888_13792)"/><path d="M653.4 112.9C629.8 170.3 629.6 198.7 687.1 204.1 715.7 206.9 738.6 209.4 752.6 210.9 740.8 188.6 747.5 174.2 747.5 174.2 747.5 174.2 749.9 205.7 761.6 212.1 765 214 767.6 212.8 767.6 212.8 767.6 212.8 750.7 192.6 754.6 137.9 755.4 126.7 754.2 115.4 751.9 104.1 749.5 92.6002 744.2 88.8002 740.3 90.0002 742.3 69.0002 711.6 61.4002 711.6 61.4002 695.2 58.8002 674.4 58.6002 653.4 112.9Z" fill="url(#paint8_linear_1888_13792)"/><path d="M717.8 173.2C717.8 173.2 708 194.3 713.6 205.4 714.1 209 705.2 215.7 684.4 210.8 671.4 207.7 668 205.6 667.5 201.6 667.5 201.6 678 179.9 680.7 161.9 683 146.6 717.8 173.2 717.8 173.2Z" fill="url(#paint9_linear_1888_13792)"/><path d="M674.502 122C680.702 123.5 679.402 138.1 704.102 128 715.802 123.2 725.102 111.4 732.102 103.9 744.202 102.3 741.802 129 741.802 129L737.302 152.6C735.702 160.6 733.402 166.8 731.102 171.7 727.902 179.1 724.502 182.4 719.602 184.3 713.702 186.4 703.402 184.2 698.202 180.9 692.902 177.4 689.302 174.7 682.802 168.8 681.402 167.6 677.502 164.1 676.902 161.1L675.602 146.8C675.602 146.8 672.802 147.1 671.602 146.3 669.402 144.9 670.102 143.3 667.002 135.4 664.002 127.4 668.502 119.5 674.502 122Z" fill="url(#paint10_linear_1888_13792)"/><path d="M702.902 209.2C710.102 208.9 714.002 202.6 720.202 203.5 744.602 207.4 761.002 221.4 762.402 250.3 764.302 286.6 771.902 427.8 771.902 427.8 778.502 439 654.702 462.4 642.702 436.1 640.002 430.2 633.802 330 633.802 330 633.802 330 615.602 224.5 629.202 217.4 639.502 212 644.202 207.3 669.602 204.6 677.702 203.7 690.202 209.8 702.902 209.2Z" fill="url(#paint11_linear_1888_13792)"/><path d="M827.002 260.8 853.002 270.7C853.002 270.7 844.502 346.8 828.402 363.2 812.302 379.6 782.902 365.7 791.702 339.2 800.202 313.3 819.702 271.5 824.202 262 824.602 260.8 825.902 260.3 827.002 260.8Z" fill="url(#paint12_linear_1888_13792)"/><path d="M669.301 196.4C670.001 193 659.001 208.4 674.301 215.4 689.601 222.3 697.001 224.1 697.001 224.1L704.101 208.8C703.801 208.7 667.001 207.2 669.301 196.4Z" fill="#ffffff"/><path d="M701.9 209.4 718.2 217.3C718.2 217.3 721.3 201.7 714.6 197.8 707.9 193.9 713.7 202 710 204.7 706.6 207.5 701.9 209.4 701.9 209.4Z" fill="#ffffff"/><path d="M653.202 496.5C653.202 496.5 663.902 493.7 668.302 481.4 672.602 469.2 669.402 465 669.402 465L654.702 455.9 639.602 477.3 653.202 496.5Z" fill="url(#paint13_linear_1888_13792)"/><path d="M635.901 216.5C635.901 216.5 622.301 214.4 611.601 238.3 600.901 262.2 585.001 345.9 588.001 378.5 591.001 410.9 636.301 481.4 636.301 481.4L663.101 456.3 627.801 376 643.501 312.3 635.901 216.5Z" fill="url(#paint14_linear_1888_13792)"/><path d="M310.8 298.9C310.8 278.8 294.5 262.5 274.4 262.5 254.3 262.5 238 278.8 238 298.9 238 319 254.3 335.3 274.4 335.3 294.5 335.3 310.8 319 310.8 298.9Z" fill="url(#paint15_radial_1888_13792)"/><path d="M153.401 306.1C160.901 302.5 168.801 296.5 176.301 290.1 191.001 277.5 204.101 263.2 208.901 261.9 211.501 261.2 228.701 272.6 218.301 304.5 208.001 336.4 191.101 368.2 169.301 372.9 159.901 374.9 150.301 375 141.801 373 130.601 370.5 121.201 364.7 116.401 355.5 107.901 339.4 110.001 314.8 110.001 314.8 110.001 314.8 131.301 317.1 153.401 306.1Z" fill="url(#paint16_linear_1888_13792)"/><path d="M153.401 306.1C160.901 302.5 168.801 296.5 176.301 290.1 191.001 277.5 204.101 263.2 208.901 261.9 211.501 261.2 228.701 272.6 218.301 304.5 208.001 336.4 191.101 368.2 169.301 372.9 159.901 374.9 150.301 375 141.801 373 130.601 370.5 121.201 364.7 116.401 355.5 107.901 339.4 110.001 314.8 110.001 314.8 110.001 314.8 131.301 317.1 153.401 306.1Z" fill="url(#paint17_linear_1888_13792)"/><path d="M328.301 246.9C330.501 246 339.301 254 349.401 271.2L349.501 271.3 349.601 271.4C349.701 271.5 349.801 271.6 349.801 271.8 349.801 271.9 349.901 272 350.001 272.1 350.101 272.2 350.201 272.3 350.301 272.4 350.501 272.6 350.601 272.8 350.701 273.1 350.801 273.1 350.801 273.2 350.901 273.3 360.901 290.6 371.901 313.6 379.701 337.8 395.401 386 394.001 426.4 394.001 426.4 394.001 426.4 390.101 427 384.301 427.1 374.701 427.2 359.801 425.6 348.401 416.2 348.001 414.7 333.801 368.1 325.201 331.4 320.001 309.3 321.101 282.8 323.501 264.8 325.001 252.7 327.201 247.3 328.301 246.9Z" fill="url(#paint18_linear_1888_13792)"/><path d="M355.5 416.3C355.5 416.3 362.4 400 378.2 406 394.1 412 393.5 443.1 393.5 443.1 365.2 440.7 355.5 416.3 355.5 416.3Z" fill="url(#paint19_linear_1888_13792)"/><path d="M204.901 301.6C205.001 301.5 205.001 301.4 205.001 301.3 207.201 289.6 210.001 278.4 213.401 267.7 216.301 258.5 220.401 249.8 225.601 242.2 236.601 226 253.001 215 274.301 215 294.801 215 313.001 230.2 325.401 253.5V253.6C327.801 258 329.901 262.7 331.801 267.7V267.8C333.901 273.3 335.801 279.1 337.301 285.1 347.401 325.3 350.301 389.6 342.801 424.4 335.101 459.2 306.401 475 272.401 475 233.301 475 206.101 449.7 201.001 411.7 196.301 377.8 197.801 338 204.901 301.6Z" fill="url(#paint20_linear_1888_13792)"/><path d="M376.501 492.9C370.601 499.3 360.601 508.8 351.801 502.2 345.301 465.3 347.701 423.3 355.501 416.3 363.201 409.2 369.701 408.7 380.801 418 391.901 427.4 392.801 444.6 392.801 444.6 390.701 457.2 380.501 486.6 376.501 492.9Z" fill="url(#paint21_linear_1888_13792)"/><path d="M356.201 417.7C344.701 428.4 346.301 467 348.901 493.6 350.801 512.5 366.201 501.2 366.201 501.2 366.201 501.2 368.001 493.4 370.401 481.1 374.801 458.3 372.001 412.2 372.001 412.2 369.101 407.9 365.901 408.8 356.201 417.7Z" fill="url(#paint22_linear_1888_13792)"/><path d="M108.201 314.8C100.401 330.9 114.101 368.9 126.701 364.7 139.301 360.5 141.501 318.5 129.101 313.6 120.001 309.9 108.101 314.8 108.201 314.8Z" fill="url(#paint23_linear_1888_13792)"/><path d="M113.6 310.9C113.6 310.9 96.1004 299 82.0004 291.2 61.2004 279.9 52.3004 283.5 52.3004 283.5 47.9004 293.4 47.8004 316.1 65.2004 332 82.6004 347.9 103 353.4 115.2 345.3 127.5 337.3 126.7 324.9 126.7 324.9 122.9 317 113.6 310.9 113.6 310.9Z" fill="url(#paint24_linear_1888_13792)"/><path d="M113.4 322.1C115.5 332.2 96.5004 331 96.5004 331 96.5004 331 84.3004 328.4 74.9004 317 65.5004 305.6 70.5004 292.8 70.5004 292.8 79.2004 294.9 111.1 311.9 113.4 322.1Z" fill="url(#paint25_linear_1888_13792)"/><path d="M366.202 409.2C350.202 411.7 340.302 445 338.802 451.2 337.302 457.4 340.602 466.4 345.202 465.3 349.902 464.2 369.002 440.5 370.002 435.7 373.902 415.4 366.202 409.2 366.202 409.2Z" fill="url(#paint26_linear_1888_13792)"/><path d="M198 75.4004C236.2 66.3004 275.2 63.4004 314.1 66.4004 324.9 67.3004 335.7 68.5004 346.4 70.3004 359.1 72.4004 368.8 88.3004 368 105.2 366.5 138.8 365.7 156.1 364.3 191.2 363.6 208.8 352.9 226.2 340.4 228.8 329.7 231 319 232.7 308.2 233.9 277.2 237.5 245.9 237.2 214.8 233 202.1 231.3 190.2 214.6 188.3 197.1 184.5 162.1 182.6 145.1 178.9 111.6 177 94.8004 185.5 78.3004 198 75.4004Z" fill="url(#paint27_linear_1888_13792)"/><path d="M198 75.4004C236.2 66.3004 275.2 63.4004 314.1 66.4004 324.9 67.3004 335.7 68.5004 346.4 70.3004 359.1 72.4004 368.8 88.3004 368 105.2 366.5 138.8 365.7 156.1 364.3 191.2 363.6 208.8 352.9 226.2 340.4 228.8 329.7 231 319 232.7 308.2 233.9 277.2 237.5 245.9 237.2 214.8 233 202.1 231.3 190.2 214.6 188.3 197.1 184.5 162.1 182.6 145.1 178.9 111.6 177 94.8004 185.5 78.3004 198 75.4004Z" fill="url(#paint28_radial_1888_13792)"/><path d="M198 75.4004C236.2 66.3004 275.2 63.4004 314.1 66.4004 324.9 67.3004 335.7 68.5004 346.4 70.3004 359.1 72.4004 368.8 88.3004 368 105.2 366.5 138.8 365.7 156.1 364.3 191.2 363.6 208.8 352.9 226.2 340.4 228.8 329.7 231 319 232.7 308.2 233.9 277.2 237.5 245.9 237.2 214.8 233 202.1 231.3 190.2 214.6 188.3 197.1 184.5 162.1 182.6 145.1 178.9 111.6 177 94.8004 185.5 78.3004 198 75.4004Z" fill="url(#paint29_radial_1888_13792)"/><path d="M198.1 75.4004C236.3 66.3004 275.3 63.4004 314.2 66.4004 322 70.7004 328.1 76.3004 330 83.7004 337.2 111.3 335.1 172 327.6 205.9 324.5 219.4 317.6 228.2 308.2 233.8 277.2 237.4 245.9 237.1 214.8 232.9 202.1 231.2 190.2 214.5 188.3 197 184.5 162 182.6 145 178.9 111.5 177 94.8004 185.5 78.3004 198.1 75.4004Z" fill="url(#paint30_linear_1888_13792)"/><path d="M198.1 75.4004C236.3 66.3004 275.3 63.4004 314.2 66.4004 322 70.7004 328.1 76.3004 330 83.7004 337.2 111.3 335.1 172 327.6 205.9 324.5 219.4 317.6 228.2 308.2 233.8 277.2 237.4 245.9 237.1 214.8 232.9 202.1 231.2 190.2 214.5 188.3 197 184.5 162 182.6 145 178.9 111.5 177 94.8004 185.5 78.3004 198.1 75.4004Z" fill="url(#paint31_radial_1888_13792)"/><path d="M198.1 75.4004C236.3 66.3004 275.3 63.4004 314.2 66.4004 322 70.7004 328.1 76.3004 330 83.7004 337.2 111.3 335.1 172 327.6 205.9 324.5 219.4 317.6 228.2 308.2 233.8 277.2 237.4 245.9 237.1 214.8 232.9 202.1 231.2 190.2 214.5 188.3 197 184.5 162 182.6 145 178.9 111.5 177 94.8004 185.5 78.3004 198.1 75.4004Z" fill="url(#paint32_radial_1888_13792)"/><path d="M242.102 106.3C214.402 108 193.102 131.7 194.702 159.5 196.402 187.3 220.102 208.6 247.902 207 275.702 205.3 296.902 181.6 295.402 153.8 293.902 126 270.002 104.8 242.102 106.3Z" fill="url(#paint33_linear_1888_13792)"/><path d="M242.102 106.3C214.402 108 193.102 131.7 194.702 159.5 196.402 187.3 220.102 208.6 247.902 207 275.702 205.3 296.902 181.6 295.402 153.8 293.902 126 270.002 104.8 242.102 106.3Z" fill="url(#paint34_linear_1888_13792)"/><path d="M242.7 114C219.1 115.3 201.1 135.6 202.4 159.2 203.7 182.8 224 200.8 247.6 199.5 271.2 198.2 289.2 177.9 287.9 154.3 286.5 130.7 266.3 112.6 242.7 114Z" fill="url(#paint35_linear_1888_13792)"/><path d="M242.7 114C219.1 115.3 201.1 135.6 202.4 159.2 203.7 182.8 224 200.8 247.6 199.5 271.2 198.2 289.2 177.9 287.9 154.3 286.5 130.7 266.3 112.6 242.7 114Z" fill="url(#paint36_radial_1888_13792)"/><path d="M256.4 125.7C239.7 126.6 227 141 227.9 157.7 228.8 174.4 243.2 187.1 259.9 186.2 276.6 185.3 289.3 170.9 288.4 154.2 287.5 137.5 273.1 124.8 256.4 125.7Z" fill="url(#paint37_linear_1888_13792)"/><path d="M258.6 131.5C245.1 132.2 234.8 143.8 235.6 157.2 236.3 170.7 247.9 181 261.3 180.2 274.8 179.5 285.1 167.9 284.3 154.5 283.6 141 272.1 130.7 258.6 131.5Z" fill="url(#paint38_linear_1888_13792)"/><path d="M265.702 127.2C249.702 116.5 230.002 117.9 221.802 130.3 213.502 142.7 219.802 161.3 235.702 172 251.702 182.7 271.402 181.3 279.602 168.9 288.002 156.6 281.702 137.9 265.702 127.2Z" fill="url(#paint39_linear_1888_13792)"/><path d="M265.702 127.2C249.702 116.5 230.002 117.9 221.802 130.3 213.502 142.7 219.802 161.3 235.702 172 251.702 182.7 271.402 181.3 279.602 168.9 288.002 156.6 281.702 137.9 265.702 127.2Z" fill="url(#paint40_radial_1888_13792)"/><path d="M265.702 127.2C249.702 116.5 230.002 117.9 221.802 130.3 213.502 142.7 219.802 161.3 235.702 172 251.702 182.7 271.402 181.3 279.602 168.9 288.002 156.6 281.702 137.9 265.702 127.2Z" fill="url(#paint41_radial_1888_13792)"/><path d="M307.901 78.1003C311.201 77.4003 314.401 79.4003 315.101 82.7003 315.801 86.0003 313.801 89.2003 310.501 89.9003 307.201 90.6003 304.001 88.6003 303.301 85.3003 302.501 82.0003 304.601 78.8003 307.901 78.1003Z" fill="#f64f64"/><path d="M307.502 77.9001C310.602 77.3001 313.602 79.2001 314.302 82.2001 314.902 85.3001 313.002 88.3001 310.002 89.0001 306.902 89.7001 303.902 87.7001 303.202 84.7001 302.502 81.7001 304.402 78.6001 307.502 77.9001Z" fill="url(#paint42_linear_1888_13792)"/><path d="M312.102 96.0001C317.102 94.9001 322.202 98.1 323.302 103.2 324.402 108.2 321.302 113.3 316.102 114.4 311.102 115.5 306.002 112.4 304.902 107.2 303.802 102.2 307.002 97.1001 312.102 96.0001Z" fill="url(#paint43_linear_1888_13792)"/><path d="M311.3 95.9003C316 94.9003 320.7 97.9003 321.8 102.6 322.8 107.4 319.8 112 315.1 113.1 310.4 114.1 305.7 111.1 304.6 106.4 303.5 101.6 306.5 96.9003 311.3 95.9003Z" fill="url(#paint44_linear_1888_13792)"/><path d="M265.6 135.3C265.6 120.6 253.7 108.7 239 108.7 224.3 108.7 212.4 120.6 212.4 135.3 212.4 150 224.3 161.9 239 161.9 253.7 161.9 265.6 150 265.6 135.3Z" fill="url(#paint45_radial_1888_13792)"/><g stroke="#bdd4ff" stroke-linecap="round" stroke-miterlimit="10" stroke-width="3"><path d="M78 232.6C82.1 228.3 87.7 225.6 94 225.1 107.6 224.2 119.3 234.5 120.2 248 120.4 251.6 119.9 255.1 118.7 258.2"/><path d="M68.9004 218.9C75.4004 213.2 83.7004 209.6 93.0004 208.9 115.5 207.4 134.9 224.4 136.4 246.9 136.7 251.2 136.3 255.4 135.3 259.4"/><path d="M60.3008 206C69.0008 198.9 79.9008 194.4 92.0008 193.6 123.001 191.5 149.801 215 151.901 246 152.201 251 151.901 255.9 151.001 260.7"/><path d="M816.901 195.1C816.601 189.2 818.401 183.2 822.401 178.3 831.001 167.8 846.501 166.2 857.001 174.8 859.801 177.1 862.001 179.8 863.501 182.9"/><path d="M800.701 192.5C801.001 183.9 804.001 175.3 809.801 168.1 824.001 150.6 849.701 148 867.201 162.2 870.601 164.9 873.401 168.1 875.601 171.5"/><path d="M785.4 189.9C786.2 178.7 790.3 167.6 797.9 158.3 817.5 134.2 853 130.6 877.1 150.2 881 153.4 884.4 157 887.2 160.9"/></g><path d="M34.201 272.4 85.101 324.2C87.601 326.8 91.101 326.5 92.801 323.7L104.501 304.2C105.101 303.2 105.201 302 104.901 300.7L105.801 305C106.101 306.3 108.901 307.1 108.301 308.1L95.801 327.4C92.901 332.5 88.301 332.9 85.701 330.3L33.501 277.3C33.401 277.2 33.301 277.1 33.201 277 31.101 274.4 31.901 270.4 34.701 268.7L39.301 266.3C39.301 267.6 32.901 271.1 34.201 272.4Z" fill="url(#paint46_linear_1888_13792)"/><path d="M36.4009 267.7C33.3009 269.2 32.8009 272.6 35.4009 275.3L86.4009 327.3C88.9009 329.9 92.4009 329.6 94.1009 326.8L108.301 308.1C109.401 306.2 106.301 302.2 104.301 300.2L65.1009 259.5C63.1009 257.4 59.8009 256.5 57.8009 257.5L36.4009 267.7Z" fill="url(#paint47_linear_1888_13792)"/><path d="M38.1009 269.3C36.2009 270.3 35.9009 272.4 37.5009 274.1L87.7009 325.3C89.3009 326.9 91.5009 326.7 92.6009 325L106.401 307.1C107.101 305.9 104.901 302.6 103.701 301.3L64.0009 260.201C62.7009 258.901 60.6009 258.3 59.3009 258.9L57.8009 259.701C56.7009 260.301 56.2009 261.3 56.3009 262.6 56.4009 263.5 56.0009 264.3 55.1009 264.8L49.2009 267.9C48.2009 268.4 46.9009 268.5 45.6009 268.1 43.7009 267.6 41.8009 267.6 40.3009 268.3L38.1009 269.3Z" fill="url(#paint48_linear_1888_13792)"/><path d="M40.2008 283 44.6008 287.6 43.7008 288.6 39.3008 284 40.2008 283Z" fill="url(#paint49_linear_1888_13792)"/><path d="M46.5016 289.5 51.0016 294.201 50.1016 295.201 45.6016 290.6 46.5016 289.5Z" fill="url(#paint50_linear_1888_13792)"/><path d="M91.801 314.8C86.201 311.1 75.401 298.9 76.301 294.6 77.201 290.3 85.101 288.4 88.601 288.8 96.401 289.7 134.201 320.8 124.601 327 118.201 331.1 97.501 318.7 91.801 314.8Z" fill="url(#paint51_linear_1888_13792)"/><path d="M829.8 261.2C829.8 261.2 825 260 825 261 824.8 262.8 826.5 265.2 828.3 266.8 831.9 270 838.4 272.6 843.5 273.5 844.8 273.7 846.2 273.6 847.5 273.4 849.2 273.1 850.7 272.5 851.6 272.1 852.2 271.8 852.9 271.4 852.5 270.8 851.6 269.6 850.3 268.5 848.7 267.6 843.3 264.4 834.8 262.3 829.8 261.2Z" fill="url(#paint52_linear_1888_13792)"/><path d="M843.401 236.1 837.701 250.1C837.701 250.1 843.301 250.8 843.801 250.3 844.201 249.8 853.501 239.1 853.501 239.1L843.401 236.1Z" fill="url(#paint53_linear_1888_13792)"/><path d="M823.001 248.6 834.8 249.9C836.6 250.1 838.301 249.1 839.001 247.4L855.8 203.9C856.9 201.3 855.8 198.8 852.8 198.5L841.001 197.2C839.201 197 837.5 198 836.8 199.7L819.701 243.2C818.701 245.7 820.301 248.3 823.001 248.6Z" fill="url(#paint54_linear_1888_13792)"/><path d="M828.101 251 835.101 253.3C836.701 253.5 839.301 246.8 839.901 245.3L856.101 203.4C856.501 202.4 855.801 201.3 854.801 201.2L843.001 199.9C841.401 199.7 839.801 200.7 839.201 202.2L822.201 245.9C821.201 248.1 825.701 250.7 828.101 251Z" fill="url(#paint55_linear_1888_13792)"/><path d="M840.701 211.5C840.701 211.5 838.001 213.6 838.501 216.5 839.001 219.5 847.201 227.3 847.301 229 847.401 230.7 854.701 236.7 854.701 236.7 854.701 236.7 856.401 233.2 854.901 230.4 853.501 227.6 854.901 223.1 851.001 219.3 847.201 215.4 841.601 210.6 840.701 211.5Z" fill="url(#paint56_linear_1888_13792)"/><path d="M854.501 249C852.201 253.4 849.501 262.3 848.701 267.6 848.601 268.1 848.601 268.6 848.501 269 848.301 271 847.901 272.4 847.501 273.4 846.201 273.6 844.801 273.7 843.501 273.5 838.401 272.6 831.901 270 828.301 266.8 828.501 265.9 829.301 263.2 829.801 261.2 830.101 260.3 830.301 259.5 830.401 259.1 830.801 257.7 830.101 254.9 830.101 254.9 830.101 254.9 829.001 254.9 825.501 253.8 822.001 252.8 817.401 250.6 815.001 248.6 812.601 246.7 813.501 243.6 816.401 243.6 817.201 243.6 818.201 243.8 819.401 244.1 820.401 244.4 821.401 244.7 822.401 245 825.001 245.9 827.501 246.8 828.101 246.8 829.301 246.7 837.301 248.8 837.301 248.8L838.601 247.9 838.801 247.7H838.901L839.301 247.4C839.301 247.4 839.301 247.3 839.201 247.1 839.201 247.1 839.101 247 839.101 246.9 838.901 246.5 838.401 246 837.601 245.5 836.101 244.5 830.001 243.2 824.101 242.1 824.001 242.1 823.801 242.1 823.701 242 822.401 241.7 821.401 241.5 820.501 241.2 817.501 240.3 816.601 239.1 816.701 236.4 816.801 233.7 821.001 233.8 823.301 234.1 824.101 234.2 824.601 234.3 824.701 234.3 824.801 234.3 825.501 234.4 826.601 234.7 829.801 235.3 836.401 236.6 839.101 237.2 840.401 237.5 841.601 237.9 842.601 238.5 844.401 239.5 845.601 240.5 845.601 240.5L846.601 239.9C846.201 238.7 844.701 237.2 843.501 236.3 843.101 236 842.801 235.7 842.501 235.5 841.301 234.7 836.101 233.4 830.101 231.6 829.401 231.4 828.701 231.1 828.201 230.9 826.901 230.3 826.101 229.5 825.601 228.7 824.601 227.1 825.101 225.3 825.801 224.1 826.101 223.5 826.901 223.2 827.801 223.1 828.801 223 830.101 223 831.201 223.1 832.701 223.2 833.901 223.5 834.301 223.6 835.201 223.8 840.101 225.4 846.601 227.5 846.701 227.5 846.801 227.6 846.901 227.6 847.001 227.6 847.101 227.7 847.301 227.7 852.801 229.5 854.501 234.8 855.001 236.8 855.101 237.3 855.101 237.6 855.101 237.6 858.601 242.1 857.001 244.2 854.501 249Z" fill="url(#paint57_linear_1888_13792)"/></g></svg>